<svg xmlns="http://www.w3.org/2000/svg" width="1024" height="1024" viewBox="0 0 1254 1254" fill="none" role="img" aria-label="Foundry Planning FP — mark, white on black">
  <rect width="1254" height="1254" fill="#0f1115"></rect>
  <g fill="#f4f5f7">
    <path d="M845 351 L393 351 L393 810 L476 888 L477 888 L477 434 L478 433 L762 433 Z"></path>
    <path d="M800 504 L764 496 L533 496 L533 581 L757 581 L782 588 L794 596 L804 607 L810 621 L810 638 L803 653 L791 664 L769 672 L535 673 L552 690 L551 691 L533 674 L533 931 L618 998 L618 756 L768 756 L807 749 L834 737 L855 722 L874 701 L883 687 L890 671 L896 647 L897 622 L892 596 L880 569 L864 547 L846 530 L824 515 Z"></path>
    <path d="M533 674 L618 756 L618 998 L533 931 Z"></path>
    <path d="M393 810 L476 888 L477 433 L393 351 Z"></path>
  </g>
</svg>