<svg xmlns="http://www.w3.org/2000/svg" width="1024" height="1024" viewBox="0 0 1254 1254" role="img" aria-labelledby="fpTitle fpDesc">
  <title id="fpTitle">Foundry Planning FP Icon</title>
  <desc id="fpDesc">A dark rounded-square icon with a dimensional amber FP monogram.</desc>
  <defs>
    <radialGradient id="outerGlow" cx="50%" cy="48%" r="70%">
      <stop offset="0%" stop-color="#141923"></stop>
      <stop offset="72%" stop-color="#0f131b"></stop>
      <stop offset="100%" stop-color="#08090c"></stop>
    </radialGradient>
    <linearGradient id="cardSheen" x1="157" y1="151" x2="1099" y2="1100" gradientUnits="userSpaceOnUse">
      <stop offset="0%" stop-color="#171c26"></stop>
      <stop offset="42%" stop-color="#10141c"></stop>
      <stop offset="100%" stop-color="#0b0e14"></stop>
    </linearGradient>
    <radialGradient id="cardCenter" cx="50%" cy="45%" r="62%">
      <stop offset="0%" stop-color="#171c27" stop-opacity=".88"></stop>
      <stop offset="56%" stop-color="#111620" stop-opacity=".78"></stop>
      <stop offset="100%" stop-color="#0c0f15" stop-opacity="1"></stop>
    </radialGradient>
    <linearGradient id="goldFront" x1="384" y1="342" x2="885" y2="764" gradientUnits="userSpaceOnUse">
      <stop offset="0%" stop-color="#fbbf24"></stop>
      <stop offset="42%" stop-color="#f59e0b"></stop>
      <stop offset="100%" stop-color="#e58a00"></stop>
    </linearGradient>
    <linearGradient id="goldDeep" x1="515" y1="640" x2="621" y2="997" gradientUnits="userSpaceOnUse">
      <stop offset="0%" stop-color="#f59e0b"></stop>
      <stop offset="52%" stop-color="#d97706"></stop>
      <stop offset="100%" stop-color="#b45309"></stop>
    </linearGradient>
    <filter id="softShadow" x="-20%" y="-20%" width="140%" height="140%">
      <feDropShadow dx="0" dy="10" stdDeviation="9" flood-color="#000000" flood-opacity=".34"></feDropShadow>
    </filter>
  </defs>
  <rect width="1254" height="1254" fill="#000000"></rect>
  <rect x="157" y="151" width="942" height="949" rx="178" ry="178" fill="url(#cardSheen)"></rect>
  <rect x="157" y="151" width="942" height="949" rx="178" ry="178" fill="url(#cardCenter)" opacity=".9"></rect>
  <g filter="url(#softShadow)">
    <path d="M845 351 L393 351 L393 810 L476 888 L477 888 L477 434 L478 433 L762 433 Z" fill="url(#goldFront)"></path>
    <path d="M800 504 L764 496 L533 496 L533 581 L757 581 L782 588 L794 596 L804 607 L810 621 L810 638 L803 653 L791 664 L769 672 L535 673 L552 690 L551 691 L533 674 L533 931 L618 998 L618 756 L768 756 L807 749 L834 737 L855 722 L874 701 L883 687 L890 671 L896 647 L897 622 L892 596 L880 569 L864 547 L846 530 L824 515 Z" fill="url(#goldFront)"></path>
    <path d="M533 674 L618 756 L618 998 L533 931 Z" fill="url(#goldDeep)" opacity=".98"></path>
    <path d="M393 810 L476 888 L477 433 L393 351 Z" fill="url(#goldFront)" opacity=".96"></path>
    <path d="M533 674 L618 756" fill="none" stroke="#7c3f00" stroke-width="2" stroke-opacity=".45"></path>
    <path d="M393 351 H845 L834 362 H402 V798 L393 810 Z" fill="#fbbf24" opacity=".22"></path>
    <path d="M533 496 H764 C793 496 820 505 846 524 C819 514 794 509 764 509 H546 V568 H533 Z" fill="#fbbf24" opacity=".20"></path>
  </g>
</svg>